<svg width="32" height="32" viewBox="0 0 32 32" fill="none" xmlns="http://www.w3.org/2000/svg">
  <defs>
    <linearGradient id="logo-grad" x1="0%" y1="0%" x2="100%" y2="100%">
      <stop offset="0%" style="stop-color:#8b5cf6;stop-opacity:1" />
      <stop offset="100%" style="stop-color:#6366f1;stop-opacity:1" />
    </linearGradient>
  </defs>
  
  <!-- Rounded background -->
  <rect width="32" height="32" rx="8" fill="url(#logo-grad)"/>
  
  <!-- File container shape -->
  <path d="M20 7H12C11.4477 7 11 7.44772 11 8V24C11 24.5523 11.4477 25 12 25H20C20.5523 25 21 24.5523 21 24V10L18 7H20Z" fill="white" fill-opacity="0.2"/>
  <path d="M18 7V10H21" stroke="white" stroke-width="1.5" stroke-linecap="round" stroke-linejoin="round"/>
  
  <!-- Downward arrow / process line symbol -->
  <path d="M16 19V13M16 13L13.5 15.5M16 13L18.5 15.5" stroke="white" stroke-width="1.5" stroke-linecap="round" stroke-linejoin="round"/>
  
  <path d="M20 7H12C11.4477 7 11 7.44772 11 8V24C11 24.5523 11.4477 25 12 25H20C20.5523 25 21 24.5523 21 24V10L18 7Z" stroke="white" stroke-width="1.5" stroke-linecap="round" stroke-linejoin="round"/>
</svg>
